<svg fill="none" height="495" viewBox="0 0 945 495" width="945" xmlns="http://www.w3.org/2000/svg" xmlns:xlink="http://www.w3.org/1999/xlink"><clipPath id="clip0_2838_1206"><path d="M0 0H945V495H0Z"/></clipPath><mask id="path-1-inside-1_2838_1206" fill="#ffffff"><rect fill="#ffffff" height="537" rx="23" width="453" x="304" y="28"/></mask><g clip-path="url(#clip0_2838_1206)"><path d="M0 0H945V495H0Z" fill="#f8f8f8"/><rect fill="#e45041" height="537" mask="url(#path-1-inside-1_2838_1206)" rx="23" stroke="#3d3d3d" stroke-width="50" width="453" x="304" y="28"/><rect fill="#ff7059" height="465" rx="3" width="354" x="329" y="53"/><path d="M611.317 346.334C611.317 472.002 588.546 730.148 584.867 768.967 584.59 771.938 582.164 774.191 579.263 774.191H479.292C476.391 774.191 473.978 771.938 473.688 768.967 470.009 730.148 447.238 472.002 447.238 346.334L528.698 345.995V345.778L529.251 345.873H529.278L529.832 345.778V345.995L611.291 346.334H611.317Z" fill="#000000"/><path clip-rule="evenodd" d="M457.96 246.693 491 297.5 649.958 348.524C642.452 352.697 633.753 355.113 624.331 355.113H471.182L450.982 392.837C446.579 395.355 441.766 396.568 437.006 396.568 427.921 396.568 419.034 392.164 413.628 384.121L394.852 356.273C380.374 334.768 377.368 307.527 386.808 283.358L457.96 246.693Z" fill="#3d3d3d" fill-rule="evenodd"/><path d="M476.64 382.79 461.094 424.943C459.816 428.411 454.686 427.488 454.686 423.796V392.309" fill="#3d3d3d"/><path d="M478 380 465.209 413.789 450.983 392.837 463.5 369.5 478 380Z" fill="#f4c9b8"/><path d="M425.239 154.58 432.066 182.898C436.018 199.321 452.533 209.432 468.956 205.479L496.736 198.793C513.16 194.84 523.271 178.326 519.318 161.902L512.318 132.811C507.303 111.975 492.078 95.0804 471.855 87.9534L466.82 86.1734C459.551 83.6125 451.456 85.474 446.035 90.9711L441.719 95.3592C426.363 110.936 420.131 133.324 425.253 154.589L425.246 154.584 425.239 154.58Z" fill="#000000"/><path d="M451.924 210.923 512.503 196.346 489.821 133.387 443.49 144.533 451.928 210.916 451.924 210.923Z" fill="#f4c9b8"/><path d="M474.876 173.066C490.886 169.211 501.039 158.323 497.948 142.769L493.046 118.112C489.669 101.091 472.803 90.2998 455.933 94.357 439.062 98.4142 428.957 115.694 433.69 132.392L440.547 156.582C444.872 171.837 458.859 176.917 474.876 173.066Z" fill="#f4c9b8"/><path d="M433.378 131.179C433.481 131.586 433.583 131.992 433.703 132.401L434.109 133.833 440.554 156.586C440.96 158.018 441.446 159.359 442.013 160.609L473.482 139.162C479.268 135.214 486.821 135.033 492.799 138.693L497.748 141.718 493.06 118.121C492.958 117.627 492.851 117.141 492.738 116.649 488.702 100.478 472.325 90.4219 455.951 94.3594 439.576 98.2968 429.465 114.869 433.389 131.177L433.383 131.172 433.378 131.179Z" fill="#cea193"/><path d="M487.491 127.59C486.61 123.928 488.87 120.229 492.537 119.341 496.21 118.457 499.902 120.713 500.786 124.386 501.67 128.06 500.135 134.766 496.461 135.649 492.788 136.533 488.373 131.253 487.496 127.584L487.491 127.59Z" fill="#cea193"/><path d="M429.671 141.497C428.789 137.834 431.049 134.136 434.723 133.252 438.396 132.368 442.084 134.63 442.972 138.297 443.856 141.971 442.321 148.676 438.647 149.56 434.973 150.444 430.559 145.164 429.671 141.497Z" fill="#cea193"/><path d="M470.563 148.911C470.839 148.846 471.081 148.643 471.181 148.353 471.34 147.901 471.11 147.398 470.651 147.234 470.112 147.044 457.465 142.598 450.011 146.214 449.579 146.425 449.393 146.945 449.606 147.388 449.817 147.82 450.338 148.007 450.774 147.789 457.562 144.487 469.937 148.837 470.061 148.882 470.234 148.941 470.399 148.955 470.563 148.911Z" fill="#000000"/><path d="M455.398 132.028C455.33 134.463 455.643 136.449 456.744 136.476 457.838 136.499 458.251 134.539 458.323 132.097 458.39 129.662 455.458 129.588 455.402 132.021L455.398 132.028Z" fill="#000000"/><path d="M476.646 126.915C476.579 129.35 476.891 131.336 477.992 131.363 479.093 131.391 479.5 129.426 479.572 126.984 479.639 124.549 476.707 124.476 476.651 126.908L476.646 126.915Z" fill="#000000"/><path d="M480.874 128.045C482.003 127.773 483.119 127.492 484.237 127.193 485.399 126.886 486.093 125.684 485.786 124.521 485.478 123.359 484.274 122.654 483.114 122.972 467.364 127.157 449.87 128.729 449.695 128.746 448.493 128.854 447.609 129.908 447.712 131.116 447.82 132.318 448.881 133.207 450.083 133.099 450.247 133.084 465.735 131.695 480.874 128.045Z" fill="#000000"/><path d="M474.876 173.066C476.705 172.629 478.457 172.091 480.118 171.473 481.177 171.076 481.987 172.452 481.12 173.181 475.804 177.648 464.846 183.845 447.938 179.548L446.359 167.107C452.944 173.994 463.393 175.831 474.876 173.066Z" fill="#cea193"/><path d="M428.884 295.535 600.932 295.535C618.324 291.347 627.687 272.447 620.498 256.073L602.488 217.954C591.541 193.074 564.893 172.278 537.788 174.353L507.895 176.654C507.895 176.654 500.169 194.957 481.234 199.515 462.292 204.069 447.085 191.287 447.085 191.287L419.417 202.836C394.34 213.303 378.612 238.472 380.178 265.602L381.384 313.5C383.176 331.885 436.922 325.544 458.384 340L428.884 295.535Z" fill="#3d3d3d"/><path d="M450.985 206.199 464.79 209.071C466.484 209.421 466.326 211.891 464.601 212.031L398.311 217.193C404.198 211.161 411.32 206.232 419.43 202.845L441.782 193.515 450.987 206.21 450.985 206.199Z" fill="#000000"/><path d="M441.712 95.3546 446.028 90.9666C451.445 85.4761 459.534 83.6101 466.814 86.1689L471.855 87.9533C492.084 95.0848 507.301 111.964 512.318 132.81L520.823 168.378C522.871 176.87 519.83 185.783 513.022 191.263L493.857 206.677C488.594 210.91 481.715 212.568 475.109 211.187L450.987 206.181C442.43 204.402 435.661 197.846 433.618 189.347L425.248 154.566C420.133 133.307 426.352 110.909 441.714 95.3368L441.721 95.3413 441.712 95.3546ZM492.047 187.875 509.802 164.525C511.605 162.149 512.252 159.082 511.554 156.18L505.931 132.793C505.315 130.226 503.697 128.016 501.455 126.632L487.909 118.347C481.937 114.691 474.373 114.875 468.591 118.816L442.746 136.427C436.919 140.406 434.137 147.574 435.787 154.437L440.649 174.639C441.344 177.519 443.288 179.948 445.95 181.239L470.05 193.053C477.682 196.795 486.9 194.628 492.052 187.868L492.047 187.875Z" fill="#3d3d3d"/><path clip-rule="evenodd" d="M665.85 170.766C666.886 177.156 664.007 183.276 658.976 186.679 664.824 188.318 669.49 193.215 670.527 199.605 671.949 208.377 665.991 216.642 657.218 218.064 656.421 218.193 655.629 218.262 654.845 218.273 654.818 218.358 654.791 218.444 654.764 218.529 658.177 220.935 660.657 224.659 661.378 229.106 662.801 237.879 656.842 246.143 648.07 247.566 645.323 248.011 642.627 247.733 640.174 246.872 640.934 248.344 641.478 249.959 641.757 251.683 643.18 260.455 637.222 268.72 628.449 270.142 622.289 271.141 616.38 268.501 612.914 263.802 608.073 265.743 602.946 267.184 597.583 268.054 588.892 269.463 580.311 269.253 572.151 267.645 569.744 271.049 566.026 273.521 561.586 274.241 552.813 275.664 544.549 269.705 543.126 260.933 543.015 260.246 542.949 259.562 542.926 258.885 542.883 258.892 542.84 258.899 542.798 258.906 534.025 260.328 525.76 254.37 524.338 245.598 523.959 243.26 524.104 240.958 524.687 238.813 517.909 237.838 512.253 232.573 511.099 225.457 510.269 220.339 511.952 215.393 515.241 211.878 511.01 209.583 507.85 205.422 507.02 200.303 506.089 194.562 508.32 189.039 512.431 185.508 509.914 183.159 508.128 179.988 507.535 176.327 506.118 167.59 512.023 159.356 520.738 157.885 520.354 156.877 520.066 155.816 519.886 154.71 518.464 145.938 524.422 137.673 533.195 136.251 536.974 135.638 540.66 136.395 543.744 138.157 543.241 130.002 548.996 122.636 557.232 121.301 562.389 120.464 567.37 122.179 570.89 125.516 572.816 120.212 577.48 116.08 583.447 115.112 591.277 113.843 598.704 118.454 601.219 125.699 603.619 122.771 607.055 120.673 611.085 120.02 619.858 118.597 628.122 124.556 629.545 133.328 629.685 134.194 629.754 135.055 629.755 135.905 630.893 135.432 632.103 135.082 633.373 134.877 642.145 133.454 650.41 139.412 651.832 148.185 652.35 151.38 651.889 154.508 650.67 157.263 658.137 157.582 664.607 163.099 665.85 170.766Z" fill="#663c2b" fill-rule="evenodd"/><path d="M659.773 337.957C659.773 308.71 638.15 285 611.476 285H561.808C535.135 285 513.512 308.71 513.512 337.957L494 592.248C494 621.495 536.493 586.828 563.166 586.828L623.799 609C650.472 609 675 593.903 675 564.656L659.773 337.957Z" fill="#4680e1"/><path d="M505.835 381.797H640.439L634.5 371.5C638.374 373.715 636.257 371.5 640.439 371.5 648.421 371.5 635.682 368.071 640.439 361V371.5C653.168 352.587 657.301 323.745 649 302.5L732 284C717.5 268 669.046 216.109 655.892 208.143L622.592 187.953H554.63L521.33 208.143C508.176 216.109 498.002 228.206 492.404 242.54L462.638 318.691C462.552 318.904 462.478 319.106 462.393 319.319 450.931 349.509 473.557 381.797 505.824 381.797H505.835Z" fill="#ffbd6e"/><path d="M554.599 187.823C573.116 207.224 604.086 207.234 622.604 187.823L611.376 121.957H565.805L554.588 187.823H554.599Z" fill="#f4c9b8"/><path d="M558.324 165.9C559.825 167.624 563.965 169.699 565.763 170.561 570.265 172.753 575.341 173.966 580.673 173.966 586.675 173.966 592.326 172.423 597.243 169.699 598.808 168.826 597.892 166.4 596.136 166.793 593.721 167.336 591.199 167.624 588.623 167.624 578.896 167.624 566.923 158.599 560.687 152.054L558.335 165.889 558.324 165.9Z" fill="#cea193"/><path d="M615.154 114.795C615.154 119.18 618.697 126.31 623.071 126.31H623.157C627.509 126.225 630.989 119.137 630.989 114.795 630.989 110.729 627.914 107.366 623.934 106.909 623.646 106.909 623.359 106.877 623.061 106.877 620.89 106.877 618.942 107.75 617.516 109.144 616.037 110.591 615.132 112.592 615.132 114.806" fill="#f4c9b8"/><path d="M546.212 114.795C546.212 119.148 549.724 126.225 554.045 126.31H554.13C557.695 126.31 560.718 121.553 561.707 117.434 561.942 116.476 562.058 115.604 562.058 114.795 562.058 110.442 558.515 106.877 554.141 106.877 553.853 106.877 553.587 106.909 553.3 106.909 553.3 106.909 553.3 106.941 553.268 106.909 549.32 107.366 546.212 110.74 546.212 114.795Z" fill="#f4c9b8"/><path d="M553.205 104.206C553.205 104.642 553.205 105.11 553.237 105.568V105.632L553.29 106.909 553.811 120.052 554.045 126.32 554.396 134.76C554.396 134.962 554.428 135.164 554.428 135.366 554.918 143.806 558.43 151.383 563.858 157.066 564.581 157.79 565.305 158.492 566.06 159.152 566.348 159.418 566.635 159.642 566.933 159.876 567.891 160.663 568.881 161.387 569.892 162.047 570.264 162.313 570.679 162.536 571.052 162.802 573.957 164.516 577.086 165.825 580.428 166.634 580.917 166.751 581.417 166.868 581.907 166.953 582.46 167.07 582.982 167.155 583.535 167.24 584.089 167.326 584.663 167.389 585.217 167.443 585.419 167.474 585.653 167.496 585.855 167.496 586.76 167.581 587.686 167.613 588.612 167.613 589.25 167.613 589.889 167.581 590.527 167.56 591.017 167.528 591.517 167.506 592.007 167.443 592.56 167.389 593.081 167.326 593.635 167.24H593.72C594.188 167.187 594.624 167.091 595.082 166.974 595.433 166.942 595.774 166.857 596.125 166.772 602.798 165.293 608.779 161.845 613.355 157.056 618.932 151.224 622.465 143.423 622.816 134.749L623.103 127.842V127.693L623.157 126.299 623.423 119.999 623.891 108.484 623.944 106.887 623.998 105.61C624.668 88.8062 613.525 74.3539 598.083 70.0969 596.923 69.7776 595.731 69.4903 594.518 69.2881 594.05 69.203 593.56 69.1392 593.071 69.0859 593.018 69.054 592.922 69.054 592.837 69.054 592.464 69.0008 592.081 68.9689 591.677 68.9369 591.272 68.8837 590.868 68.8517 590.432 68.8517 589.825 68.8198 589.218 68.7986 588.601 68.7986 586.015 68.7986 583.493 69.0647 581.056 69.6074 580.215 69.7777 579.374 69.9799 578.533 70.2459 563.879 74.5667 553.205 88.1464 553.205 104.195" fill="#f4c9b8"/><path d="M588.624 68.7986C608.387 68.7986 624.403 84.8153 624.403 104.578V105.951C624.403 105.951 624.403 106.057 624.403 106.111L624.041 110.698C623.956 111.751 623.073 112.571 622.019 112.571 621.019 112.571 620.125 111.943 619.774 111.006 616.624 102.492 610.121 95.6492 601.799 92.0521H601.778C593.381 88.4231 583.877 88.4231 575.48 92.0521 567.158 95.6492 560.666 102.492 557.516 110.996 557.165 111.943 556.271 112.571 555.271 112.571 554.206 112.571 553.323 111.751 553.248 110.698L552.887 106.036C552.887 106.036 552.887 105.994 552.887 105.972L552.855 106.036V104.589C552.855 84.826 568.871 68.8092 588.634 68.8092L588.624 68.7986Z" fill="#663c2b"/><path d="M577.023 276.652H600.212C604.962 276.652 608.812 280.502 608.812 285.251V337.771C608.812 342.52 604.962 346.37 600.212 346.37H577.023C572.274 346.37 568.424 342.52 568.424 337.771V285.251C568.424 280.502 572.274 276.652 577.023 276.652Z" fill="#000000"/><path d="M564.443 308.877H597.85C600.18 308.877 601.713 311.304 600.723 313.411L596.934 321.436C595.7 324.043 593.572 326.129 590.932 327.299L566.753 338.016C566.029 338.336 565.231 338.506 564.433 338.506 561.282 338.506 558.718 335.952 558.718 332.791V314.582C558.718 311.432 561.272 308.867 564.433 308.867" fill="#f4c9b8"/><path d="M603.797 183.95 622.2 187.723 602.889 230.719C597.25 243.261 579.702 243.271 574.064 230.719L554.731 187.712 578.139 181.656" fill="#f4c9b8"/><g fill="#000000"><path d="M600.171 131.906C600.171 135.001 600.563 137.508 601.751 137.508 602.94 137.508 603.332 135.001 603.332 131.906 603.332 128.812 602.94 126.305 601.751 126.305 600.563 126.305 600.171 128.812 600.171 131.906Z"/><path d="M572.624 131.907C572.624 135.002 573.016 137.508 574.204 137.508 575.393 137.508 575.785 135.002 575.785 131.907 575.785 128.812 575.393 126.305 574.204 126.305 573.016 126.305 572.624 128.812 572.624 131.907Z"/><path d="M598.113 119.735C597.585 119.326 597.25 118.695 597.258 117.989 597.272 116.814 598.232 115.848 599.421 115.856 599.653 115.857 604.67 115.922 609.28 119.78 610.202 120.545 610.321 121.891 609.555 122.827 608.79 123.741 607.429 123.86 606.507 123.095 603.139 120.263 599.438 120.204 599.391 120.203 598.916 120.196 598.477 119.995 598.113 119.735Z"/><path d="M577.843 119.735C578.371 119.326 578.706 118.694 578.699 117.988 578.684 116.814 577.724 115.848 576.535 115.855 576.303 115.857 571.286 115.922 566.676 119.779 565.754 120.545 565.635 121.89 566.401 122.827 567.166 123.741 568.527 123.86 569.449 123.094 572.817 120.263 576.518 120.204 576.565 120.203 577.04 120.196 577.479 119.995 577.843 119.735Z"/><path clip-rule="evenodd" d="M593.857 155.364C594.526 155.113 595.273 155.449 595.528 156.117 595.785 156.787 595.449 157.539 594.778 157.795 594.619 157.856 594.454 157.904 594.29 157.95 594 158.03 593.58 158.132 593.023 158.232 591.909 158.432 590.248 158.624 587.978 158.624 585.708 158.624 584.047 158.432 582.933 158.232 582.376 158.132 581.957 158.03 581.667 157.95 581.502 157.904 581.339 157.852 581.178 157.795 580.507 157.539 580.172 156.787 580.428 156.117 580.684 155.449 581.431 155.113 582.099 155.364 582.1 155.364 582.101 155.364 582.102 155.365 582.118 155.371 582.204 155.401 582.363 155.445 582.574 155.503 582.915 155.587 583.393 155.673 584.348 155.844 585.855 156.024 587.978 156.024 590.101 156.024 591.608 155.844 592.564 155.673 593.042 155.587 593.382 155.503 593.593 155.445 593.752 155.401 593.838 155.371 593.855 155.365 593.856 155.364 593.857 155.364 593.857 155.364Z" fill-rule="evenodd"/></g><path d="M556 112.5C581.6 109.7 594.667 95 598 88L594 84.5 561 88 556 112.5Z" fill="#663c2b"/><rect fill="#3d3d3d" height="83" rx="10" width="64" x="797" y="219"/><rect fill="#000000" height="51" rx="8" width="53" x="803" y="224"/><rect fill="#0eac69" height="14" rx="5" width="14" x="822" y="281"/><path d="M796 241.5 790.5 254 806.5 271.5 828 258.5 804 241.5H796Z" fill="#f4c9b8"/><path d="M704.854 333.667 609.477 267.918 657.5 209.024 740.019 291.293 704.854 333.667Z" fill="#ffbd6e"/><path d="M790.227 251.793C789.179 250.394 787.236 250.027 785.749 250.946L683 316.186C705.458 337.841 735.997 356.108 757.999 328.042L805.314 277.479C807.41 275.24 807.479 271.781 805.476 269.459L790.227 251.793Z" fill="#ffbd6e"/><path d="M676 358 667.526 296.729C665.99 285.623 651.417 282.502 645.468 292.005L624.5 325.5 604.708 364.39C600.686 372.293 606.329 381.678 615.196 381.831L654 382.5C673.6 382.5 676.667 365.667 676 358Z" fill="#ffbd6e"/><rect fill="#3e5fff" height="60" rx="5" transform="matrix(.96148412 .27486048 -.27486048 .96148412 86.029595 -215.932144)" width="41" x="813.492" y="199"/><rect fill="#2e53bc" height="15" rx="2" transform="matrix(.96148412 .27486048 -.27486048 .96148412 88.78836 -216.253492)" width="14.9929" x="816.018" y="208.683"/><path d="M792 251.5 792.904 240.754C793.462 236.504 796.264 232.879 800.24 231.284L808.164 228.091C810.605 227.105 812.723 230.069 811.005 232.066L792 251.5Z" fill="#f4c9b8"/><path d="M827 265.5 843 207.5 839.5 206.5 823.5 264.5 827 265.5Z" fill="#2e53bb"/><path d="M250 554V375C250 368.373 255.373 363 262 363H417.872C419.666 363 421.436 363.402 423.054 364.177L512.182 406.852C516.349 408.847 519 413.056 519 417.675V506.18C519 510.607 516.563 514.674 512.659 516.762L423.249 564.582C421.507 565.513 419.564 566 417.589 566H262C255.373 566 250 560.627 250 554Z" fill="#e2f1ff" fill-opacity=".6"/><path d="M798 554V375C798 368.373 792.627 363 786 363H630.128C628.334 363 626.564 363.402 624.946 364.177L535.818 406.852C531.651 408.847 529 413.056 529 417.675V506.18C529 510.607 531.437 514.674 535.341 516.762L624.751 564.582C626.493 565.513 628.436 566 630.411 566H786C792.627 566 798 560.627 798 554Z" fill="#e2f1ff" fill-opacity=".6"/><rect fill="#bbbbbb" height="179" rx="6" width="41" x="228" y="354"/><rect fill="#bbbbbb" height="179" rx="6" width="41" x="792" y="354"/><path d="M-49 363H228V571H-49Z" fill="#3d3d3d"/><path d="M832 365H975V523H832Z" fill="#3d3d3d"/><circle cx="176" cy="134" fill="#e3e3e3" r="57" stroke="#a9a9a9" stroke-width="8"/><path d="M176 100V134.102C176 134.443 175.826 134.76 175.539 134.944L152 150" stroke="#000000" stroke-linecap="round" stroke-width="9"/><path d="M228 520V363H197.5L228 520Z" fill="#000000"/><path d="M832 522V365H862.5L832 522Z" fill="#000000"/></g></svg>